HIERARCHY
ROOT hips
{
  OFFSET 0 11.86390953 0.3628582958
  CHANNELS 6 Xposition Yposition Zposition Yrotation Xrotation Zrotation
  JOINT spine
  {
    OFFSET 0 0.05383551117999996 0
    CHANNELS 3 Yrotation Xrotation Zrotation
    JOINT chest
    {
      OFFSET 0 0.6394558760401424 0
      CHANNELS 3 Yrotation Xrotation Zrotation
      JOINT neck
      {
        OFFSET 0 2.720089088562982 0
        CHANNELS 3 Yrotation Xrotation Zrotation
        JOINT head
        {
          OFFSET 0 0.37880844870545777 0
          CHANNELS 3 Yrotation Xrotation Zrotation
          JOINT rightEye
          {
            OFFSET -0.42867780714 0.7547055649100001 0.7381831347
            CHANNELS 3 Yrotation Xrotation Zrotation
            End Site
            {
              OFFSET -0.42867780714 0.7547055649100001 0.7381831347
            }
          }
          JOINT leftEye
          {
            OFFSET 0.428676479 0.7547055559999993 0.7381844503
            CHANNELS 3 Yrotation Xrotation Zrotation
            End Site
            {
              OFFSET 0.428676479 0.7547055559999993 0.7381844503
            }
          }
          JOINT jaw
          {
            OFFSET -0.18933892286100001 1.5626303011000007 1.137441874206
            CHANNELS 3 Yrotation Xrotation Zrotation
            End Site
            {
              OFFSET -0.18933892286100001 1.5626303011000007 1.137441874206
            }
          }
        }
      }
      JOINT rightShoulder
      {
        OFFSET -0.6795351508 2.0665205 0
        CHANNELS 3 Yrotation Xrotation Zrotation
        JOINT rightUpperArm
        {
          OFFSET -0.7287400483531672 0 0
          CHANNELS 3 Yrotation Xrotation Zrotation
          JOINT rightLowerArm
          {
            OFFSET -1.9872982039174532 0 0
            CHANNELS 3 Yrotation Xrotation Zrotation
            JOINT rightHand
            {
              OFFSET -2.6451847532219275 0 0
              CHANNELS 3 Yrotation Xrotation Zrotation
              JOINT rightLittleProximal
              {
                OFFSET -0.8008804099999995 -0.09592044000000044 -0.26183688629999996
                CHANNELS 3 Yrotation Xrotation Zrotation
                JOINT rightLittleIntermediate
                {
                  OFFSET -0.2473955153999997 -0.02541697026000067 0.002370178700999967
                  CHANNELS 3 Yrotation Xrotation Zrotation
                  JOINT rightLittleDistal
                  {
                    OFFSET -0.163687229200001 -0.015790700860001117 -0.0004274845300000635
                    CHANNELS 3 Yrotation Xrotation Zrotation
                    End Site
                    {
                      OFFSET -0.163687229200001 -0.015790700860001117 -0.0004274845300000635
                    }
                  }
                }
              }
              JOINT rightRingProximal
              {
                OFFSET -0.8393382799999985 -0.06223833561000025 -0.09213143500000005
                CHANNELS 3 Yrotation Xrotation Zrotation
                JOINT rightRingIntermediate
                {
                  OFFSET -0.3284497260000011 -0.03264224524000103 0.009408593183000052
                  CHANNELS 3 Yrotation Xrotation Zrotation
                  JOINT rightRingDistal
                  {
                    OFFSET -0.19447660429999902 -0.021730899850000318 0.003074347969000052
                    CHANNELS 3 Yrotation Xrotation Zrotation
                    End Site
                    {
                      OFFSET -0.19447660429999902 -0.021730899850000318 0.003074347969000052
                    }
                  }
                }
              }
              JOINT rightMiddleProximal
              {
                OFFSET -0.8473005199999989 -0.06735503500000095 0.10541820299999995
                CHANNELS 3 Yrotation Xrotation Zrotation
                JOINT rightMiddleIntermediate
                {
                  OFFSET -0.3450455799999995 -0.02481901642000084 0.019012570390000032
                  CHANNELS 3 Yrotation Xrotation Zrotation
                  JOINT rightMiddleDistal
                  {
                    OFFSET -0.23542332000000088 -0.025003910029999243 0.0075583457949999905
                    CHANNELS 3 Yrotation Xrotation Zrotation
                    End Site
                    {
                      OFFSET -0.23542332000000088 -0.025003910029999243 0.0075583457949999905
                    }
                  }
                }
              }
              JOINT rightIndexProximal
              {
                OFFSET -0.8008568281999987 -0.09897839600000169 0.29462796
                CHANNELS 3 Yrotation Xrotation Zrotation
                JOINT rightIndexIntermediate
                {
                  OFFSET -0.30524754480000016 -0.024634122809999992 0.02743375304999998
                  CHANNELS 3 Yrotation Xrotation Zrotation
                  JOINT rightIndexDistal
                  {
                    OFFSET -0.23067378950000017 -0.016876459159999913 0.008484125099999983
                    CHANNELS 3 Yrotation Xrotation Zrotation
                    End Site
                    {
                      OFFSET -0.23067378950000017 -0.016876459159999913 0.008484125099999983
                    }
                  }
                }
              }
              JOINT rightThumbProximal
              {
                OFFSET -0.25574064999999935 -0.12833189930000155 0.22385698609999993
                CHANNELS 3 Yrotation Xrotation Zrotation
                JOINT rightThumbIntermediate
                {
                  OFFSET -0.22791743260000086 -0.07103586192999978 0.27385039
                  CHANNELS 3 Yrotation Xrotation Zrotation
                  JOINT rightThumbDistal
                  {
                    OFFSET -0.13610267659999975 -0.03369390969999997 0.14246511509999996
                    CHANNELS 3 Yrotation Xrotation Zrotation
                    End Site
                    {
                      OFFSET -0.13610267659999975 -0.03369390969999997 0.14246511509999996
                    }
                  }
                }
              }
            }
          }
        }
      }
      JOINT leftShoulder
      {
        OFFSET 0.6795338396 2.0665205 0
        CHANNELS 3 Yrotation Xrotation Zrotation
        JOINT leftUpperArm
        {
          OFFSET 0.7287383950230443 0 0
          CHANNELS 3 Yrotation Xrotation Zrotation
          JOINT leftLowerArm
          {
            OFFSET 1.9872997282019604 0 0
            CHANNELS 3 Yrotation Xrotation Zrotation
            JOINT leftHand
            {
              OFFSET 2.6451820781302327 0 0
              CHANNELS 3 Yrotation Xrotation Zrotation
              JOINT leftLittleProximal
              {
                OFFSET 0.8008804099999995 -0.09592306899999814 -0.2618342639000001
                CHANNELS 3 Yrotation Xrotation Zrotation
                JOINT leftLittleIntermediate
                {
                  OFFSET 0.2473981400000007 -0.02542352681000093 0.0023609995859999455
                  CHANNELS 3 Yrotation Xrotation Zrotation
                  JOINT leftLittleDistal
                  {
                    OFFSET 0.1636846068000002 -0.015794634789999318 -0.00043272972159996703
                    CHANNELS 3 Yrotation Xrotation Zrotation
                    End Site
                    {
                      OFFSET 0.1636846068000002 -0.015794634789999318 -0.00043272972159996703
                    }
                  }
                }
              }
              JOINT leftRingProximal
              {
                OFFSET 0.8393409199999996 -0.062242267999998324 -0.0921281570000001
                CHANNELS 3 Yrotation Xrotation Zrotation
                JOINT leftRingIntermediate
                {
                  OFFSET 0.3284471036000003 -0.03264224524000103 0.009405970574000042
                  CHANNELS 3 Yrotation Xrotation Zrotation
                  JOINT leftRingDistal
                  {
                    OFFSET 0.1944779099999996 -0.021732211159998904 0.003073036670000001
                    CHANNELS 3 Yrotation Xrotation Zrotation
                    End Site
                    {
                      OFFSET 0.1944779099999996 -0.021732211159998904 0.003073036670000001
                    }
                  }
                }
              }
              JOINT leftMiddleProximal
              {
                OFFSET 0.8473005200000001 -0.06736028199999788 0.1054214809999999
                CHANNELS 3 Yrotation Xrotation Zrotation
                JOINT leftMiddleIntermediate
                {
                  OFFSET 0.3450455799999995 -0.024824261000000014 0.019013225990000007
                  CHANNELS 3 Yrotation Xrotation Zrotation
                  JOINT leftMiddleDistal
                  {
                    OFFSET 0.2354259489999998 -0.025005222000000327 0.0075590014499999705
                    CHANNELS 3 Yrotation Xrotation Zrotation
                    End Site
                    {
                      OFFSET 0.2354259489999998 -0.025005222000000327 0.0075590014499999705
                    }
                  }
                }
              }
              JOINT leftIndexProximal
              {
                OFFSET 0.8008594516999996 -0.09898495199999946 0.29463124239999994
                CHANNELS 3 Yrotation Xrotation Zrotation
                JOINT leftIndexIntermediate
                {
                  OFFSET 0.30524754480000016 -0.024632811499998963 0.02743047472
                  CHANNELS 3 Yrotation Xrotation Zrotation
                  JOINT leftIndexDistal
                  {
                    OFFSET 0.23067378950000017 -0.016876459159999913 0.008481502700000004
                    CHANNELS 3 Yrotation Xrotation Zrotation
                    End Site
                    {
                      OFFSET 0.23067378950000017 -0.016876459159999913 0.008481502700000004
                    }
                  }
                }
              }
              JOINT leftThumbProximal
              {
                OFFSET 0.25574326469999953 -0.12833321050000013 0.22385764169999997
                CHANNELS 3 Yrotation Xrotation Zrotation
                JOINT leftThumbIntermediate
                {
                  OFFSET 0.22804987480000094 -0.07138466829999968 0.273648441
                  CHANNELS 3 Yrotation Xrotation Zrotation
                  JOINT leftThumbDistal
                  {
                    OFFSET 0.13614857189999907 -0.033867001519998885 0.14238119169999996
                    CHANNELS 3 Yrotation Xrotation Zrotation
                    End Site
                    {
                      OFFSET 0.13614857189999907 -0.033867001519998885 0.14238119169999996
                    }
                  }
                }
              }
            }
          }
        }
      }
    }
  }
  JOINT rightUpperLeg
  {
    OFFSET -0.9749898906000001 -1.8495733739999998 0
    CHANNELS 3 Yrotation Xrotation Zrotation
    JOINT rightLowerLeg
    {
      OFFSET 0 -4.1566544686813165 0
      CHANNELS 3 Yrotation Xrotation Zrotation
      JOINT rightFoot
      {
        OFFSET 0.14539718599999998 -4.225553926 -0.3666210900000001
        CHANNELS 3 Yrotation Xrotation Zrotation
        JOINT rightToes
        {
          OFFSET 0.1706738473 -0.9584117400000015 1.0093348617
          CHANNELS 3 Yrotation Xrotation Zrotation
          End Site
          {
            OFFSET 0.1706738473 -0.9584117400000015 1.0093348617
          }
        }
      }
    }
  }
  JOINT leftUpperLeg
  {
    OFFSET 0.9749898906000001 -1.8495733739999998 0
    CHANNELS 3 Yrotation Xrotation Zrotation
    JOINT leftLowerLeg
    {
      OFFSET 0 -4.156653488267941 0
      CHANNELS 3 Yrotation Xrotation Zrotation
      JOINT leftFoot
      {
        OFFSET -0.14537357999999995 -4.225555399999999 -0.36661124279999996
        CHANNELS 3 Yrotation Xrotation Zrotation
        JOINT leftToes
        {
          OFFSET -0.17066467000000002 -0.9584157000000019 1.0093348617
          CHANNELS 3 Yrotation Xrotation Zrotation
          End Site
          {
            OFFSET -0.17066467000000002 -0.9584157000000019 1.0093348617
          }
        }
      }
    }
  }
}
MOTION
Frames: 4
Frame Time: 0.03333333333333333
-0.530703067779541 -0.5124071114819344 -0.234640970826149 5.59517738013438 12.402339394968221 4.301928901861507 2.4404612498905576 12.599629837352968 -17.18370521409334 4.138698813025416 7.748854239067597 5.2379921518002925 -3.027690196665773 -2.197165938614122 1.5381961393294796 -17.079278847238523 -25.295959429901576 9.723538746134318 0 0 0 0 0 0 0 0 0 11.998950414201037 2.989923387428411 -8.183382312424769 11.99372810640229 -60.21643832792269 8.969030777722205 55.33866037581773 0.31923738311849087 -0.6087798544248059 -19.537987865801597 24.171026427133047 -61.08978265981884 -2.388149548927885 -0.03492188226945852 2.4515099168756915 0.09599045221513461 -0.00003970095657012538 0.013298373072637778 -0.057559786466884005 -0.000023275863007684585 0.010517056297016873 -2.424681009490877 0.05120882651650243 2.4542465368660524 -0.03246671958082465 0.000018351868499581674 0.10350151900532233 -0.01362556262794408 0.000005060023727607415 0.010922429510839552 -2.511270586974584 0.054918294508084504 2.456515681870638 0.09030567118250277 -0.00006655634303852741 0.10188854974056712 -0.03760588454771273 0.000005951214945797997 0.010840434726987104 -2.481765721270635 0.05304149909741655 2.4431315705773526 0.022801923023798087 -0.000013221993888059644 0.09445507679917528 -0.01029421638011549 -5.096892310363934e-7 0.0028312117927384414 -9.783759136806085 -2.471919181205461 -9.295675812481482 2.759925874150927 3.7501238876900493 -0.10720918619888647 13.869107150891676 -8.652265856716378 -12.290907537133561 -12.043797112894143 1.4841403542142009 -15.618463185255077 11.390048254979874 0.10861940950401582 -66.21601783864499 -38.29123297760933 0.15916939902372068 0.4586517823689536 -6.606844935463477 -1.4845293786493177 9.597511468920018 13.10772482141218 5.365376638818273 -36.74485446379919 4.894725269029034 4.861363954462614 -84.63684072534998 4.589217853753493 3.306010128915172 -66.9136781546325 8.327049778602222 5.557342313936715 -62.417051696237124 5.130159892407064 5.0546717879997445 -89.13385092249122 4.884917976613449 3.564655413629758 -72.20756011119701 7.950589979619966 4.957639512411854 -63.899297056013566 5.027046355254142 4.086109731317452 -78.2520008171815 4.827636779708704 3.3910902921570467 -70.15602528637177 6.146477155203159 3.030298127507481 -62.372175204694344 4.712164517530504 3.0909160791434265 -66.48674894868827 4.784556403245906 3.2974738040782468 -69.06097773202148 -7.032353921824868 15.919541868900733 9.950759637785287 34.77506909498376 8.351131214102722 -8.286437883767325 15.769498676850016 -4.998280887155812 15.501185888316805 -8.399115209359591 -35.758366602720855 -7.6359579850823875 -1.932953428227131 30.05510871260645 -2.648468029954024 -15.306820140507902 -5.806731669178852 9.256227627428622 0.000012664598008814725 -0.46809706755100683 0.000003301966875606391 5.821094816162427 -24.563045364884132 -7.915785554621708 3.2163411341311146 26.146659366846233 -2.4524604513314774 -4.689488951840109 -13.294913860865574 6.369784367386092 0.000001969527247002835 -0.34847245008375377 2.956230586701061e-7
-0.5308851599693298 -0.5115287774365243 -0.23061157763004303 5.6342991611515885 12.458927322356823 4.315151925713046 2.3514170232425378 12.592587460581264 -17.089003152721567 4.077369580935988 7.715357527257532 5.262506977186736 -3.019178397340134 -2.450104140256438 1.543730864965135 -16.93133797578995 -24.862941027355443 9.656193488212008 0 0 0 0 0 0 0 0 0 11.931440408801587 2.9825606907769946 -8.134394019527953 11.978293171148007 -59.90096523865762 8.760235027712355 55.253886829585134 0.3183328493006001 -0.6081402419728998 -19.623834799827073 24.113566931335022 -61.052461012040226 -2.388134478559828 -0.034394520198909075 2.4521416601364354 0.09595590111040514 -0.00004368480801926935 0.013897094314794224 -0.05761374760058978 -0.000010623116145404087 0.011108093589030367 -2.4246997069293648 0.05119760405764751 2.4550166110054246 -0.03251861300285085 0.00001577437711193747 0.10411622119752176 -0.013673473167250939 0.000006240588222715787 0.011487696845390532 -2.511322553571755 0.054908042549514355 2.4573572733651505 0.09028172552926514 -0.00006618526624806344 0.10247539146826869 -0.03764275021984611 -0.0000025256610685549625 0.01139860673622651 -2.481815128352643 0.0525803477407355 2.442976033797425 0.02281488970976859 -0.000012146321134791174 0.09432740446001027 -0.010270186488058698 0.0000036607429192741535 0.0027233472061307753 -9.783805193236276 -2.471846542856048 -9.295651094476023 2.759987430363719 3.7509640928762504 -0.10728476238042077 13.868987349709355 -8.652248584680509 -12.290927680063977 -12.106857056296498 1.47436362890397 -15.654921088155719 11.284229069796217 0.10495300561380953 -66.12778211417553 -38.11871216758514 0.15779272377338452 0.45688182290853 -6.467975771968048 -1.4498725215045907 9.439615714930234 13.107979529520057 5.365312324012615 -36.745372426087336 4.894850409957155 4.863802999600718 -84.66418740698647 4.590089869077163 3.3083074042168614 -66.94099535123033 8.326647695665185 5.559738169640207 -62.44455298823646 5.130200944175756 5.057757808623208 -89.16837643266726 4.885852960449947 3.567592960366111 -72.24194966862655 7.950587446752988 4.960734930433483 -63.934253343547326 5.027672587114376 4.089127814565216 -78.2864574370403 4.828691575537428 3.3939862447558693 -70.19039375075552 6.147915927717473 3.0334333038594843 -62.41136089468295 4.7134062654842825 3.093762649970291 -66.52114235823285 4.785659685657275 3.3003517348354587 -69.09538116928302 -7.0381471705149 15.918526201244045 9.947441814386828 34.77460279678629 8.351150198422292 -8.285918503873026 15.769214251961692 -4.998318596594533 15.501144414735622 -8.34923622456502 -35.771005527041176 -7.648028096143161 -1.9977561965610322 30.029165815546072 -2.7078754219239975 -15.322592884999551 -5.80974473703449 9.293274029757143 -0.000010373608611057646 -0.46808420715628307 -0.0000027320960649469813 5.791063515159656 -24.57609243050213 -7.92438003236325 3.2097244410913777 26.08678009907997 -2.447767971921807 -4.6839209533162585 -13.28118999442875 6.357393217919521 0.0000024249549776818307 -0.3473004107065222 -7.771436189636937e-7
-0.5338148474693298 -0.5072935097973641 -0.21298393607139587 5.822291779365545 12.45447859584765 4.377176063984562 2.1518107649559055 12.555860879024161 -16.894825436835017 3.9369034633957347 7.6029637892787125 5.28816559909416 -3.058762262899609 -2.7600522512458086 1.5382589945722085 -16.94845673776849 -24.11177284876175 9.486108047904462 0 0 0 0 0 0 0 0 0 11.64324272729969 2.950730118237774 -7.8866410161699445 11.328938981910007 -58.96147725228622 8.853218928602153 55.00470945654815 0.31568771133528706 -0.6063087171000743 -20.098738663378782 24.130594195375807 -60.88014914387259 -2.386785334771833 -0.03174790149569734 2.440859925117667 0.09682826979271099 -0.0000037111786796354297 0.0010421673681002537 -0.056870684771237974 1.4633844044938428e-7 0.00030064145473915517 -2.423587705463187 0.051150923297908636 2.4420379083987984 -0.0316719731499106 0.000021709270570665755 0.09181880842217047 -0.01297626030109841 -7.900818428667267e-7 0.0012014602486207268 -2.510315188667668 0.054854251450070814 2.443750664581868 0.09104345742055858 -0.000058504084814141266 0.09144232928363423 -0.03695055449705968 -4.408560482867218e-8 0.0013470771177278673 -2.4817776628953356 0.05175705614042038 2.44505964103562 0.022787550612995495 -0.000012170914710254496 0.09477991055061602 -0.010290548655360932 0.0000029880699548073417 0.0029024800057346955 -9.784947085884827 -2.474012235587724 -9.295014397023074 2.765079063496416 3.7515364938170204 -0.10842155808836017 13.873413222138835 -8.653023236268368 -12.29063578299191 -12.126852018971663 1.47170868943371 -15.66918928490257 11.162566899301574 0.12678795788327585 -66.16677337881953 -37.562963351740294 0.1533830066513153 0.45123999642997775 -6.287396751084067 -2.7456493308271273 9.469150396443336 13.108712030959635 5.365103944088853 -36.746966110482255 4.895229972463546 4.87107777305676 -84.74546587987494 4.592670014378429 3.315121866049886 -67.02225190389028 8.325409877572023 5.566855454086002 -62.52630503034172 5.130330558728771 5.066942674765225 -89.27110102829286 4.88864516250259 3.5763143387717884 -72.34415150529537 7.950545798138756 4.969924002610379 -64.03828957439326 5.029536689135587 4.098114511516682 -78.38896517629162 4.83177630410299 3.4026172784515403 -70.29262725487409 6.152123663460327 3.042803619614824 -62.52778437639423 4.717027180384578 3.102167100376843 -66.62340928086373 4.788930083608798 3.308910105803411 -69.19764669883173 -7.055362269056344 15.91546147296967 9.937613946370456 34.77323949794442 8.351202836767749 -8.284282873091579 15.76832612275249 -4.998412013167986 15.500994121343789 -8.310679479607446 -35.61945377406798 -7.736655946698615 -2.1781846470203683 29.98908720846297 -2.80799823042954 -15.373187121467245 -5.890776247620457 9.374314643085825 -9.805005382804569e-7 -0.4680938657929822 -1.0593598713229795e-7 5.698464344209301 -24.37656165076 -7.911752412103983 3.0723212588171287 25.859983257715637 -2.5330060709864592 -4.656267730219175 -13.248254650879954 6.34406353718393 0.0000045046783929557045 -0.3438393895173848 4.777428232549316e-7
-0.535524308681488 -0.5062788003247078 -0.20560456812381744 5.810988028854811 12.43278078043747 4.3848286815302995 2.1268694465936377 12.524682609332544 -16.855728482257653 3.9156462740707236 7.574916694690769 5.283826620675032 -3.0712404142032868 -2.7414514232843064 1.5251620856443688 -16.999080387456235 -24.053610665719837 9.436116747079335 0 0 0 0 0 0 0 0 0 11.587547459308022 2.942750016462939 -7.797123192622336 10.981667600359254 -58.81507405655702 9.113337875515565 54.955750243379185 0.31516746181624394 -0.6059376419730724 -20.267590800079127 24.04181386331552 -60.79831116804144 -2.387104724774314 -0.03133399130226672 2.441669809476377 0.09675026300691025 -0.000009925266011856549 0.0022994506759915242 -0.05690897783380086 0.0000027131483041401245 0.0009910841481925562 -2.423749639743295 0.051170520078945125 2.442409690367921 -0.03174181249228526 0.00002047488722279245 0.09290505389578343 -0.013004258072160336 -6.25260359496922e-7 0.0017495839713507105 -2.5104070308778086 0.05486098492578126 2.443805256426617 0.09098089190009723 -0.00005798562081440501 0.09218810507684937 -0.03698455869248911 -0.000003347264192981115 0.001819442499113485 -2.4815287908149988 0.05170029017496925 2.4452914534724424 0.022735550466960634 -0.000010171697627686842 0.09543033175618738 -0.010349598273512057 -0.000005786476665738658 0.0036197472081213925 -9.784541751840218 -2.47339395420064 -9.295154684206958 2.763879907629187 3.7521170234052557 -0.10813523523211002 13.872283925936136 -8.652824607504154 -12.290707096867992 -12.10306666782334 1.4753457939718277 -15.661493197960686 11.187645287876816 0.16635432011805404 -66.24559602978255 -37.46178099466949 0.15259087530658236 0.4501932713855665 -6.2909591253139086 -3.4250393834167876 9.62148779958603 13.108960892557528 5.365023765001347 -36.747484072314734 4.89534671393954 4.873469297041282 -84.77232688605817 4.593541193225331 3.317366567278505 -67.0490790215926 8.324998796837923 5.56921446215384 -62.55329852961335 5.130362461992118 5.069972183543787 -89.3050131805876 4.889561979385414 3.579196532936638 -72.37793092071037 7.950530059433945 4.972957774315551 -64.07260397728794 5.030146738909103 4.101085133940583 -78.42279435202094 4.832806973893302 3.4054568169063373 -70.32635042886324 6.153508182150111 3.04587876983562 -62.56620125784334 4.7182266375762865 3.10494957429251 -66.65715058081905 4.789997879212776 3.3117429578315054 -69.2314147080424 -7.061048245905022 15.914449377144713 9.934381783410831 34.77277233295089 8.35123649079561 -8.283746414601117 15.768047578039681 -4.9984565788774455 15.500932646468856 -8.32933085203309 -35.56269171613056 -7.731567460613342 -2.1488353607044726 29.99689461198501 -2.794331152998 -15.389066305047267 -5.93769710665462 9.3770846330746 0.000003487746374944601 -0.4680874089143034 0.0000015817527157819354 5.637160553656805 -24.307122331118826 -7.947447052577379 3.1958950212355304 25.828315250779166 -2.3637624993733954 -4.647142945096034 -13.2829549994667 6.245987109157711 0.00000919595186121214 -0.34268893556281715 -9.400751483782047e-9
